# xmcd
#
# Track frame offsets: 
#        150
#        16662
#        33475
#        48509
#        63641
#        81918
#        98644
#        113898
#        128896
#        146197
#        161798
#        177334
#        194615
#        211406
#        229110
#        244857
#        260377
#        272568
#        289684
#        305905
#
# Disc length: 4331 seconds
#
# Revision: 2
# Processed by: cddbd v1.5.2PL0 Copyright (c) Steve Scherf et al.
# Submitted via: ExactAudioCopyFreeDBPlugin 1.0
#
DISCID=2d10e914
DTITLE=Various Artist - I Love 90's
DYEAR=1900
DGENRE=Dance
TTITLE0=Gala - Free From Desire
TTITLE1=Black Box - Ride On Time
TTITLE2=Technotronic - Pump Up The Jam
TTITLE3=Livin' Joy - Don't Stop Movin' (Radio Mix)
TTITLE4=Haddaway - What Is Love
TTITLE5=Corona - Rhythm Of The Night
TTITLE6=Strike - U Sure Do
TTITLE7=Bobby Brown - Two Can Play At That Game (K KlassiK Radio Mix)
TTITLE8=C&C Music Factory Feat. Freedom Williams - Gonna Make You Swea
TTITLE8=t (Everybody Dance Now)
TTITLE9=Snap! - The Power (7" Version)
TTITLE10=The Original - I Luv U Baby (Dancing Divaz (1995) Club Mix)
TTITLE11=Rozalla - Everbody's Free (To Feel Good)
TTITLE12=Dr Alban - It's My Life
TTITLE13=Real McCoy - Another Night (Radio Edit)
TTITLE14=Alex Party - Don't Give Me Your Life (Alex Party - Classic Mi
TTITLE14=x)
TTITLE15=Urban Cookie Collective - The Key, The Secret (Dancing Divaz 
TTITLE15=7' Edit)
TTITLE16=The Outhere Brothers - Boom, Boom, Boom (UK Radio Edit)
TTITLE17=Reel 2 Real Feat. The Mad Stuntman - I Like To Move It (Radio
TTITLE17=Mix)
TTITLE18=K-Klass - Let Me Show You
TTITLE19=Culture Beat - Mr Vain (Original Mix)
EXTD=(p)2016 Ministry of Sound
EXTT0=
EXTT1=
EXTT2=
EXTT3=
EXTT4=
EXTT5=
EXTT6=
EXTT7=
EXTT8=
EXTT9=
EXTT10=
EXTT11=
EXTT12=
EXTT13=
EXTT14=
EXTT15=
EXTT16=
EXTT17=
EXTT18=
EXTT19=
PLAYORDER=
